See related torrent at http://thepiratebay.se/torrent/7814922/Emily_Ratajkowski

This Emily Ratajkowski Treats Video showcases her Treats modeling shoots and was not included in my previous Emily Ratajkowski upload but is worth another posting. It'd be a shame for this to not be included in anyone's collection of her work. Simply breathe taking. 



 
Emily Ratajkowski Treats Video 7mn 38s at 720p


General

Emily Ratajkowski.mp4
Format                                   : MPEG-4
Format profile                           : Base Media
Codec ID                                 : isom
File size                                : 145 MiB
Duration                                 : 7mn 40s
Overall bit rate mode                    : Variable
Overall bit rate                         : 2 645 Kbps
Encoded date                             : UTC 2012-06-02 08:59:54
Tagged date                              : UTC 2012-06-03 09:00:12

Video
ID                                       : 1
Format                                   : AVC
Format/Info                              : Advanced Video Codec
Format profile                           : High@L3.1
Format settings, CABAC                   : Yes
Format settings, ReFrames                : 4 frames
Codec ID                                 : avc1
Codec ID/Info                            : Advanced Video Coding
Duration                                 : 7mn 40s
Bit rate                                 : 2 485 Kbps
Maximum bit rate                         : 7 088 Kbps
Width                                    : 1 280 pixels
Height                                   : 720 pixels
Display aspect ratio                     : 16:9
Frame rate mode                          : Constant
Frame rate                               : 23.976 fps
Color space                              : YUV
Chroma subsampling                       : 4:2:0
Bit depth                                : 8 bits
Scan type                                : Progressive
Bits/(Pixel*Frame)                       : 0.112
Stream size                              : 136 MiB (94%)
Writing library                          : Vimeo Encoder
Encoded date                             : UTC 2012-06-02 08:59:54
Tagged date                              : UTC 2012-06-02 09:00:11

Audio
ID                                       : 2
Format                                   : AAC
Format/Info                              : Advanced Audio Codec
Format profile                           : LC
Codec ID                                 : 40
Duration                                 : 7mn 38s
Bit rate mode                            : Variable
Bit rate                                 : 158 Kbps
Maximum bit rate                         : 239 Kbps
Channel(s)                               : 2 channels
Channel positions                        : Front: L R
Sampling rate                            : 44.1 KHz
Compression mode                         : Lossy
Stream size                              : 8.62 MiB (6%)
Encoded date                             : UTC 2012-06-02 09:00:10
Tagged date                              : UTC 2012-06-02 09:00:11

